<?xml version="1.0" encoding="UTF-8"?>
<svg id="katman_1" data-name="katman 1" xmlns="http://www.w3.org/2000/svg" version="1.1" viewBox="0 0 1000 1178.9">
  <defs>
    <style>
      .cls-1 {
        fill: none;
      }

      .cls-1, .cls-2, .cls-3 {
        stroke: #000;
        stroke-miterlimit: 16.7;
        stroke-width: 4.2px;
      }

      .cls-2 {
        fill: #fff;
        stroke-opacity: 0;
      }

      .cls-4 {
        font-size: 41.3px;
      }

      .cls-4, .cls-5 {
        font-family: Times-Roman, Times;
        isolation: isolate;
      }

      .cls-4, .cls-5, .cls-3 {
        fill: #000;
      }

      .cls-5 {
        font-size: 58.3px;
      }
    </style>
  </defs>
  <g id="graph0">
    <polygon class="cls-2" points="0 1162.5 0 0 987.5 0 987.5 1162.5 0 1162.5"/>
    <g id="node1">
      <line class="cls-1" x1="83.3" y1="641.7" x2="383.3" y2="641.7"/>
      <text class="cls-5" transform="translate(165.3 617.5)"><tspan x="0" y="0">dünya</tspan></text>
      <polygon class="cls-1" points="83.3 725 83.3 641.7 233.3 641.7 233.3 725 83.3 725"/>
      <text class="cls-5" transform="translate(108.2 700.8)"><tspan x="0" y="0">isim</tspan></text>
      <polygon class="cls-1" points="233.3 725 233.3 641.7 383.3 641.7 383.3 725 233.3 725"/>
      <text class="cls-5" transform="translate(245.2 700.8)"><tspan x="0" y="0">değer</tspan></text>
      <polygon class="cls-1" points="83.3 808.3 83.3 725 233.3 725 233.3 808.3 83.3 808.3"/>
      <text class="cls-5" transform="translate(125.9 784.2)"><tspan x="0" y="0">ptr</tspan></text>
      <polygon class="cls-1" points="233.3 808.3 233.3 725 383.3 725 383.3 808.3 233.3 808.3"/>
      <polygon class="cls-1" points="83.3 891.7 83.3 808.3 233.3 808.3 233.3 891.7 83.3 891.7"/>
      <text class="cls-4" transform="translate(91.9 864.1)"><tspan x="0" y="0">uzunluk</tspan></text>
      <polygon class="cls-1" points="233.3 891.7 233.3 808.3 383.3 808.3 383.3 891.7 233.3 891.7"/>
      <text class="cls-5" transform="translate(293.8 867.5)"><tspan x="0" y="0">5</tspan></text>
    </g>
    <g id="node3">
      <polygon class="cls-1" points="635.4 105.4 635.4 22.1 789.6 22.1 789.6 105.4 635.4 105.4"/>
      <text class="cls-5" transform="translate(647.7 81.2)"><tspan x="0" y="0">index</tspan></text>
      <polygon class="cls-1" points="789.6 105.4 789.6 22.1 939.6 22.1 939.6 105.4 789.6 105.4"/>
      <text class="cls-5" transform="translate(801.4 81.2)"><tspan x="0" y="0">value</tspan></text>
      <polygon class="cls-1" points="635.4 186.2 635.4 105.4 789.6 105.4 789.6 186.2 635.4 186.2"/>
      <text class="cls-5" transform="translate(697.9 161.5)"><tspan x="0" y="0">0</tspan></text>
      <polygon class="cls-1" points="789.6 186.2 789.6 105.4 939.6 105.4 939.6 186.2 789.6 186.2"/>
      <text class="cls-5" transform="translate(841.9 161.5)"><tspan x="0" y="0">m</tspan></text>
      <polygon class="cls-1" points="635.4 266.9 635.4 186.2 789.6 186.2 789.6 266.9 635.4 266.9"/>
      <text class="cls-5" transform="translate(697.9 242.3)"><tspan x="0" y="0">1</tspan></text>
      <polygon class="cls-1" points="789.6 266.9 789.6 186.2 939.6 186.2 939.6 266.9 789.6 266.9"/>
      <text class="cls-5" transform="translate(851.6 242.3)"><tspan x="0" y="0">e</tspan></text>
      <polygon class="cls-1" points="635.4 347.6 635.4 266.9 789.6 266.9 789.6 347.6 635.4 347.6"/>
      <text class="cls-5" transform="translate(697.9 323)"><tspan x="0" y="0">2</tspan></text>
      <polygon class="cls-1" points="789.6 347.6 789.6 266.9 939.6 266.9 939.6 347.6 789.6 347.6"/>
      <text class="cls-5" transform="translate(854.8 323)"><tspan x="0" y="0">r</tspan></text>
      <polygon class="cls-1" points="635.4 428.4 635.4 347.6 789.6 347.6 789.6 428.4 635.4 428.4"/>
      <text class="cls-5" transform="translate(697.9 403.8)"><tspan x="0" y="0">3</tspan></text>
      <polygon class="cls-1" points="789.6 428.4 789.6 347.6 939.6 347.6 939.6 428.4 789.6 428.4"/>
      <text class="cls-5" transform="translate(850 403.8)"><tspan x="0" y="0">h</tspan></text>
      <polygon class="cls-1" points="635.4 509.1 635.4 428.4 789.6 428.4 789.6 509.1 635.4 509.1"/>
      <text class="cls-5" transform="translate(697.9 484.5)"><tspan x="0" y="0">4</tspan></text>
      <polygon class="cls-1" points="789.6 509.1 789.6 428.4 939.6 428.4 939.6 509.1 789.6 509.1"/>
      <text class="cls-5" transform="translate(851.6 484.5)"><tspan x="0" y="0">a</tspan></text>
      <text class="cls-5" transform="translate(850 565.3)"><tspan x="0" y="0">b</tspan></text>
      <polygon class="cls-1" points="635.4 589.9 635.4 509.1 789.6 509.1 789.6 589.9 635.4 589.9"/>
      <text class="cls-5" transform="translate(697.9 565.3)"><tspan x="0" y="0">5</tspan></text>
      <polygon class="cls-1" points="789.6 589.9 789.6 509.1 939.6 509.1 939.6 589.9 789.6 589.9"/>
      <polygon class="cls-1" points="635.4 670.6 635.4 589.9 789.6 589.9 789.6 670.6 635.4 670.6"/>
      <text class="cls-5" transform="translate(697.9 646)"><tspan x="0" y="0">6</tspan></text>
      <polygon class="cls-1" points="789.6 670.6 789.6 589.9 939.6 589.9 939.6 670.6 789.6 670.6"/>
      <text class="cls-5" transform="translate(851.6 646)"><tspan x="0" y="0">a</tspan></text>
      <polygon class="cls-1" points="635.4 751.4 635.4 670.6 789.6 670.6 789.6 751.4 635.4 751.4"/>
      <text class="cls-5" transform="translate(697.9 726.7)"><tspan x="0" y="0">7</tspan></text>
      <polygon class="cls-1" points="789.6 751.4 789.6 670.6 939.6 670.6 939.6 751.4 789.6 751.4"/>
      <polygon class="cls-1" points="635.4 832.1 635.4 751.4 789.6 751.4 789.6 832.1 635.4 832.1"/>
      <text class="cls-5" transform="translate(697.9 807.5)"><tspan x="0" y="0">8</tspan></text>
      <polygon class="cls-1" points="789.6 832.1 789.6 751.4 939.6 751.4 939.6 832.1 789.6 832.1"/>
      <text class="cls-5" transform="translate(850 807.5)"><tspan x="0" y="0">d</tspan></text>
      <polygon class="cls-1" points="635.4 912.9 635.4 832.1 789.6 832.1 789.6 912.9 635.4 912.9"/>
      <text class="cls-5" transform="translate(697.9 888.2)"><tspan x="0" y="0">9</tspan></text>
      <polygon class="cls-1" points="789.6 912.9 789.6 832.1 939.6 832.1 939.6 912.9 789.6 912.9"/>
      <text class="cls-5" transform="translate(850 888.2)"><tspan x="0" y="0">ü</tspan></text>
      <polygon class="cls-1" points="635.4 993.6 635.4 912.9 789.6 912.9 789.6 993.6 635.4 993.6"/>
      <text class="cls-5" transform="translate(683.3 969)"><tspan x="0" y="0">10</tspan></text>
      <polygon class="cls-1" points="789.6 993.6 789.6 912.9 939.6 912.9 939.6 993.6 789.6 993.6"/>
      <polygon class="cls-1" points="635.4 1074.3 635.4 993.5 789.6 993.5 789.6 1074.3 635.4 1074.3"/>
      <polygon class="cls-1" points="789.6 1074.3 789.6 993.5 939.6 993.5 939.6 1074.3 789.6 1074.3"/>
      <polygon class="cls-1" points="635.4 1154.9 635.4 1074.1 789.6 1074.1 789.6 1154.9 635.4 1154.9"/>
      <polygon class="cls-1" points="789.6 1154.9 789.6 1074.1 939.6 1074.1 939.6 1154.9 789.6 1154.9"/>
      <text class="cls-5" transform="translate(850 969)"><tspan x="0" y="0">n</tspan></text>
      <text class="cls-5" transform="translate(683.3 1049.6)"><tspan x="0" y="0">11</tspan></text>
      <text class="cls-5" transform="translate(850 1049.6)"><tspan x="0" y="0">y</tspan></text>
      <text class="cls-5" transform="translate(683.3 1130.3)"><tspan x="0" y="0">12</tspan></text>
      <text class="cls-5" transform="translate(851.6 1130.3)"><tspan x="0" y="0">a</tspan></text>
    </g>
    <g id="edge1">
      <path class="cls-1" d="M593.7,791.8c-136.2-1.9-285.4-12.2-285.4-12.2"/>
      <polygon class="cls-3" points="593.9 777.2 635.4 792.1 593.6 806.3 593.9 777.2"/>
    </g>
    <g id="node2">
      <line class="cls-1" x1="50" y1="82.7" x2="416.7" y2="82.7"/>
      <text class="cls-5" transform="translate(222 58.5)"><tspan x="0" y="0">s</tspan></text>
      <polygon class="cls-1" points="50 166 50 82.7 266.7 82.7 266.7 166 50 166"/>
      <text class="cls-5" transform="translate(108.2 141.8)"><tspan x="0" y="0">isim</tspan></text>
      <polygon class="cls-1" points="266.7 166 266.7 82.7 416.7 82.7 416.7 166 266.7 166"/>
      <text class="cls-5" transform="translate(278.5 141.8)"><tspan x="0" y="0">değer</tspan></text>
      <polygon class="cls-1" points="50 249.3 50 166 266.7 166 266.7 249.3 50 249.3"/>
      <text class="cls-5" transform="translate(125.9 225.2)"><tspan x="0" y="0">ptr</tspan></text>
      <polygon class="cls-1" points="266.7 249.3 266.7 166 416.7 166 416.7 249.3 266.7 249.3"/>
      <polygon class="cls-1" points="50 332.7 50 249.3 266.7 249.3 266.7 332.7 50 332.7"/>
      <text class="cls-5" transform="translate(64.5 308.5)"><tspan x="0" y="0">uzunluk</tspan></text>
      <polygon class="cls-1" points="266.7 332.7 266.7 249.3 416.7 249.3 416.7 332.7 266.7 332.7"/>
      <text class="cls-5" transform="translate(313.6 308.5)"><tspan x="0" y="0">13</tspan></text>
      <polygon class="cls-1" points="50 416 50 332.7 266.7 332.7 266.7 416 50 416"/>
      <text class="cls-5" transform="translate(62.9 391.8)"><tspan x="0" y="0">kapasite</tspan></text>
      <polygon class="cls-1" points="266.7 416 266.7 332.7 416.7 332.7 416.7 416 266.7 416"/>
      <text class="cls-5" transform="translate(313.6 391.8)"><tspan x="0" y="0">13</tspan></text>
    </g>
    <g id="edge2">
      <path class="cls-1" d="M333.4,189.5s130.5-38.3,251.6-40.4"/>
      <polygon class="cls-3" points="585.7 134.6 627.2 149.5 585.4 163.7 585.7 134.6"/>
    </g>
  </g>
</svg>