<?xml version="1.0" encoding="UTF-8"?>
<svg id="katman_1" data-name="katman 1" xmlns="http://www.w3.org/2000/svg" version="1.1" viewBox="0 0 1000 1000">
  <defs>
    <style>
      .cls-1 {
        fill: none;
      }

      .cls-1, .cls-2, .cls-3 {
        stroke: #000;
        stroke-miterlimit: 16.7;
        stroke-width: 4.2px;
      }

      .cls-2 {
        fill: #fff;
        stroke-opacity: 0;
      }

      .cls-4 {
        font-family: Times-Roman, Times;
        font-size: 58.3px;
        isolation: isolate;
      }

      .cls-4, .cls-3 {
        fill: #000;
      }
    </style>
  </defs>
  <g id="graph0">
    <polygon class="cls-2" points="0 1000 0 0 1000 0 1000 1000 0 1000"/>
    <g id="node1">
      <line class="cls-1" x1="50" y1="116.7" x2="416.7" y2="116.7"/>
      <text class="cls-4" transform="translate(207.4 92.5)"><tspan x="0" y="0">s1</tspan></text>
      <polygon class="cls-1" points="50 200 50 116.7 266.7 116.7 266.7 200 50 200"/>
      <text class="cls-4" transform="translate(108.2 175.8)"><tspan x="0" y="0">isim</tspan></text>
      <polygon class="cls-1" points="266.7 200 266.7 116.7 416.7 116.7 416.7 200 266.7 200"/>
      <text class="cls-4" transform="translate(278.5 175.8)"><tspan x="0" y="0">değer</tspan></text>
      <polygon class="cls-1" points="50 283.3 50 200 266.7 200 266.7 283.3 50 283.3"/>
      <text class="cls-4" transform="translate(125.9 259.2)"><tspan x="0" y="0">ptr</tspan></text>
      <polygon class="cls-1" points="266.7 283.3 266.7 200 416.7 200 416.7 283.3 266.7 283.3"/>
      <polygon class="cls-1" points="50 366.7 50 283.3 266.7 283.3 266.7 366.7 50 366.7"/>
      <text class="cls-4" transform="translate(64.5 342.5)"><tspan x="0" y="0">uzunluk</tspan></text>
      <polygon class="cls-1" points="266.7 366.7 266.7 283.3 416.7 283.3 416.7 366.7 266.7 366.7"/>
      <text class="cls-4" transform="translate(327.1 342.5)"><tspan x="0" y="0">5</tspan></text>
      <polygon class="cls-1" points="50 450 50 366.7 266.7 366.7 266.7 450 50 450"/>
      <text class="cls-4" transform="translate(62.9 425.8)"><tspan x="0" y="0">kapasite</tspan></text>
      <polygon class="cls-1" points="266.7 450 266.7 366.7 416.7 366.7 416.7 450 266.7 450"/>
      <text class="cls-4" transform="translate(327.1 425.8)"><tspan x="0" y="0">5</tspan></text>
    </g>
    <g id="node3">
      <polygon class="cls-1" points="635.4 462.5 635.4 379.2 789.6 379.2 789.6 462.5 635.4 462.5"/>
      <text class="cls-4" transform="translate(647.7 438.3)"><tspan x="0" y="0">index</tspan></text>
      <polygon class="cls-1" points="789.6 462.5 789.6 379.2 939.6 379.2 939.6 462.5 789.6 462.5"/>
      <text class="cls-4" transform="translate(801.4 438.3)"><tspan x="0" y="0">değer</tspan></text>
      <polygon class="cls-1" points="635.4 545.8 635.4 462.5 789.6 462.5 789.6 545.8 635.4 545.8"/>
      <text class="cls-4" transform="translate(697.9 521.7)"><tspan x="0" y="0">0</tspan></text>
      <polygon class="cls-1" points="789.6 545.8 789.6 462.5 939.6 462.5 939.6 545.8 789.6 545.8"/>
      <text class="cls-4" transform="translate(850 521.7)"><tspan x="0" y="0">h</tspan></text>
      <polygon class="cls-1" points="635.4 629.2 635.4 545.8 789.6 545.8 789.6 629.2 635.4 629.2"/>
      <text class="cls-4" transform="translate(697.9 605)"><tspan x="0" y="0">1</tspan></text>
      <polygon class="cls-1" points="789.6 629.2 789.6 545.8 939.6 545.8 939.6 629.2 789.6 629.2"/>
      <text class="cls-4" transform="translate(851.6 605)"><tspan x="0" y="0">e</tspan></text>
      <polygon class="cls-1" points="635.4 712.5 635.4 629.2 789.6 629.2 789.6 712.5 635.4 712.5"/>
      <text class="cls-4" transform="translate(697.9 688.3)"><tspan x="0" y="0">2</tspan></text>
      <polygon class="cls-1" points="789.6 712.5 789.6 629.2 939.6 629.2 939.6 712.5 789.6 712.5"/>
      <text class="cls-4" transform="translate(856.5 688.3)"><tspan x="0" y="0">l</tspan></text>
      <polygon class="cls-1" points="635.4 795.8 635.4 712.5 789.6 712.5 789.6 795.8 635.4 795.8"/>
      <text class="cls-4" transform="translate(697.9 771.7)"><tspan x="0" y="0">3</tspan></text>
      <polygon class="cls-1" points="789.6 795.8 789.6 712.5 939.6 712.5 939.6 795.8 789.6 795.8"/>
      <text class="cls-4" transform="translate(856.5 771.7)"><tspan x="0" y="0">l</tspan></text>
      <polygon class="cls-1" points="635.4 879.2 635.4 795.8 789.6 795.8 789.6 879.2 635.4 879.2"/>
      <text class="cls-4" transform="translate(697.9 855)"><tspan x="0" y="0">4</tspan></text>
      <polygon class="cls-1" points="789.6 879.2 789.6 795.8 939.6 795.8 939.6 879.2 789.6 879.2"/>
      <text class="cls-4" transform="translate(850 855)"><tspan x="0" y="0">o</tspan></text>
    </g>
    <g id="edge1">
      <path class="cls-1" d="M341.7,241.7s100,221.2,251.8,257.5"/>
      <polygon class="cls-3" points="595.8 484.7 635.4 504.2 592.3 513.7 595.8 484.7"/>
    </g>
    <g id="node2">
      <line class="cls-1" x1="50" y1="641.7" x2="416.7" y2="641.7"/>
      <text class="cls-4" transform="translate(207.4 617.5)"><tspan x="0" y="0">s2</tspan></text>
      <polygon class="cls-1" points="50 725 50 641.7 266.7 641.7 266.7 725 50 725"/>
      <text class="cls-4" transform="translate(108.2 700.8)"><tspan x="0" y="0">isim</tspan></text>
      <polygon class="cls-1" points="266.7 725 266.7 641.7 416.7 641.7 416.7 725 266.7 725"/>
      <text class="cls-4" transform="translate(278.5 700.8)"><tspan x="0" y="0">değer</tspan></text>
      <polygon class="cls-1" points="50 808.3 50 725 266.7 725 266.7 808.3 50 808.3"/>
      <text class="cls-4" transform="translate(125.9 784.2)"><tspan x="0" y="0">ptr</tspan></text>
      <polygon class="cls-1" points="266.7 808.3 266.7 725 416.7 725 416.7 808.3 266.7 808.3"/>
      <polygon class="cls-1" points="50 891.7 50 808.3 266.7 808.3 266.7 891.7 50 891.7"/>
      <text class="cls-4" transform="translate(64.5 867.5)"><tspan x="0" y="0">uzunluk</tspan></text>
      <polygon class="cls-1" points="266.7 891.7 266.7 808.3 416.7 808.3 416.7 891.7 266.7 891.7"/>
      <text class="cls-4" transform="translate(327.1 867.5)"><tspan x="0" y="0">5</tspan></text>
      <polygon class="cls-1" points="50 975 50 891.7 266.7 891.7 266.7 975 50 975"/>
      <text class="cls-4" transform="translate(62.9 950.8)"><tspan x="0" y="0">kapasite</tspan></text>
      <polygon class="cls-1" points="266.7 975 266.7 891.7 416.7 891.7 416.7 975 266.7 975"/>
      <text class="cls-4" transform="translate(327.1 950.8)"><tspan x="0" y="0">5</tspan></text>
    </g>
    <g id="edge2">
      <path class="cls-1" d="M341.7,766.7s100-221.2,251.8-257.5"/>
      <polygon class="cls-3" points="592.3 494.6 635.4 504.2 595.8 523.6 592.3 494.6"/>
    </g>
  </g>
</svg>