<?xml version="1.0" encoding="UTF-8"?>
<svg id="katman_1" data-name="katman 1" xmlns="http://www.w3.org/2000/svg" version="1.1" viewBox="0 0 1000 1000">
  <defs>
    <style>
      .cls-1, .cls-2, .cls-3, .cls-4, .cls-5 {
        stroke: #000;
      }

      .cls-1, .cls-2, .cls-3, .cls-5 {
        stroke-miterlimit: 16.7;
        stroke-width: 4.2px;
      }

      .cls-1, .cls-4 {
        fill: none;
      }

      .cls-2 {
        fill: #fff;
      }

      .cls-2, .cls-3 {
        stroke-opacity: 0;
      }

      .cls-3 {
        fill: silver;
      }

      .cls-4 {
        stroke-miterlimit: 16.7;
        stroke-width: 4.2px;
      }

      .cls-6 {
        font-size: 58.3px;
      }

      .cls-6, .cls-7, .cls-8 {
        isolation: isolate;
      }

      .cls-6, .cls-8 {
        font-family: Times-Roman, Times;
      }

      .cls-6, .cls-8, .cls-5 {
        fill: #000;
      }

      .cls-8 {
        font-size: 58.3px;
      }
    </style>
  </defs>
  <g id="graph0">
    <polygon class="cls-2" points="0 1000 0 0 1000 0 1000 1000 0 1000"/>
    <g id="node1">
      <polygon class="cls-3" points="50 450 50 33.3 416.7 33.3 416.7 450 50 450"/>
      <line class="cls-1" x1="50" y1="116.7" x2="416.7" y2="116.7"/>
      <text class="cls-6" transform="translate(207.4 92.5)"><tspan x="0" y="0">s1</tspan></text>
      <polygon class="cls-1" points="50 200 50 116.7 266.7 116.7 266.7 200 50 200"/>
      <text class="cls-6" transform="translate(108.2 175.8)"><tspan x="0" y="0">isim</tspan></text>
      <polygon class="cls-1" points="266.7 200 266.7 116.7 416.7 116.7 416.7 200 266.7 200"/>
      <text class="cls-6" transform="translate(278.5 175.8)"><tspan x="0" y="0">değer</tspan></text>
      <polygon class="cls-1" points="50 283.3 50 200 266.7 200 266.7 283.3 50 283.3"/>
      <text class="cls-6" transform="translate(125.9 259.2)"><tspan x="0" y="0">ptr</tspan></text>
      <polygon class="cls-1" points="266.7 283.3 266.7 200 416.7 200 416.7 283.3 266.7 283.3"/>
      <polygon class="cls-1" points="50 366.7 50 283.3 266.7 283.3 266.7 366.7 50 366.7"/>
      <text class="cls-6" transform="translate(64.5 342.5)"><tspan x="0" y="0">uzunluk</tspan></text>
      <polygon class="cls-1" points="266.7 366.7 266.7 283.3 416.7 283.3 416.7 366.7 266.7 366.7"/>
      <text class="cls-6" transform="translate(327.1 342.5)"><tspan x="0" y="0">7</tspan></text>
      <polygon class="cls-1" points="50 450 50 366.7 266.7 366.7 266.7 450 50 450"/>
      <text class="cls-6" transform="translate(62.9 425.8)"><tspan x="0" y="0">kapasite</tspan></text>
      <polygon class="cls-1" points="266.7 450 266.7 366.7 416.7 366.7 416.7 450 266.7 450"/>
      <text class="cls-6" transform="translate(327.1 425.8)"><tspan x="0" y="0">7</tspan></text>
    </g>
    <g id="edge1">
      <path class="cls-1" d="M353.3,241.7s99.8,157.8,251.7,194.1"/>
      <polygon class="cls-5" points="607.2 421.4 646.9 440.8 603.8 450.3 607.2 421.4"/>
    </g>
    <g id="node2">
      <line class="cls-1" x1="50" y1="641.7" x2="416.7" y2="641.7"/>
      <text class="cls-6" transform="translate(207.4 617.5)"><tspan x="0" y="0">s2</tspan></text>
      <polygon class="cls-1" points="50 725 50 641.7 266.7 641.7 266.7 725 50 725"/>
      <text class="cls-6" transform="translate(108.2 700.8)"><tspan x="0" y="0">isim</tspan></text>
      <polygon class="cls-1" points="266.7 725 266.7 641.7 416.7 641.7 416.7 725 266.7 725"/>
      <text class="cls-6" transform="translate(278.5 700.8)"><tspan x="0" y="0">değer</tspan></text>
      <polygon class="cls-1" points="50 808.3 50 725 266.7 725 266.7 808.3 50 808.3"/>
      <text class="cls-6" transform="translate(125.9 784.2)"><tspan x="0" y="0">ptr</tspan></text>
      <polygon class="cls-1" points="266.7 808.3 266.7 725 416.7 725 416.7 808.3 266.7 808.3"/>
      <polygon class="cls-1" points="50 891.7 50 808.3 266.7 808.3 266.7 891.7 50 891.7"/>
      <text class="cls-6" transform="translate(64.5 867.5)"><tspan x="0" y="0">uzunluk</tspan></text>
      <polygon class="cls-1" points="266.7 891.7 266.7 808.3 416.7 808.3 416.7 891.7 266.7 891.7"/>
      <text class="cls-6" transform="translate(327.1 867.5)"><tspan x="0" y="0">7</tspan></text>
      <polygon class="cls-1" points="50 975 50 891.7 266.7 891.7 266.7 975 50 975"/>
      <text class="cls-6" transform="translate(62.9 950.8)"><tspan x="0" y="0">kapasite</tspan></text>
      <polygon class="cls-1" points="266.7 975 266.7 891.7 416.7 891.7 416.7 975 266.7 975"/>
      <text class="cls-6" transform="translate(327.1 950.8)"><tspan x="0" y="0">7</tspan></text>
    </g>
    <g id="edge2">
      <path class="cls-1" d="M371.3,756.3s81.8-273,233.6-309.3"/>
      <polygon class="cls-5" points="603.8 432.5 646.9 442 607.2 461.4 603.8 432.5"/>
    </g>
    <g id="node3">
      <polygon class="cls-4" points="656 390.8 656 307.5 810.2 307.5 810.2 390.8 656 390.8"/>
      <g class="cls-7">
        <text class="cls-8" transform="translate(668.3 366.6)"><tspan x="0" y="0">index</tspan></text>
      </g>
      <polygon class="cls-4" points="810.2 390.8 810.2 307.5 960.2 307.5 960.2 390.8 810.2 390.8"/>
      <g class="cls-7">
        <text class="cls-8" transform="translate(822 366.6)"><tspan x="0" y="0">değer</tspan></text>
      </g>
      <polygon class="cls-4" points="656 474.1 656 390.8 810.2 390.8 810.2 474.1 656 474.1"/>
      <g class="cls-7">
        <text class="cls-8" transform="translate(718.5 450)"><tspan x="0" y="0">0</tspan></text>
      </g>
      <polygon class="cls-4" points="810.2 474.1 810.2 390.8 960.2 390.8 960.2 474.1 810.2 474.1"/>
      <g class="cls-7">
        <text class="cls-8" transform="translate(862.5 450)"><tspan x="0" y="0">m</tspan></text>
      </g>
      <polygon class="cls-4" points="656 557.5 656 474.1 810.2 474.1 810.2 557.5 656 557.5"/>
      <g class="cls-7">
        <text class="cls-8" transform="translate(718.5 533.3)"><tspan x="0" y="0">1</tspan></text>
      </g>
      <polygon class="cls-4" points="810.2 557.5 810.2 474.1 960.2 474.1 960.2 557.5 810.2 557.5"/>
      <g class="cls-7">
        <text class="cls-8" transform="translate(872.2 533.3)"><tspan x="0" y="0">e</tspan></text>
      </g>
      <polygon class="cls-4" points="656 640.8 656 557.5 810.2 557.5 810.2 640.8 656 640.8"/>
      <g class="cls-7">
        <text class="cls-8" transform="translate(718.5 616.6)"><tspan x="0" y="0">2</tspan></text>
      </g>
      <polygon class="cls-4" points="810.2 640.8 810.2 557.5 960.2 557.5 960.2 640.8 810.2 640.8"/>
      <g class="cls-7">
        <text class="cls-8" transform="translate(875.4 616.6)"><tspan x="0" y="0">r</tspan></text>
      </g>
      <polygon class="cls-4" points="656 724.1 656 640.8 810.2 640.8 810.2 724.1 656 724.1"/>
      <g class="cls-7">
        <text class="cls-8" transform="translate(718.5 700)"><tspan x="0" y="0">3</tspan></text>
      </g>
      <polygon class="cls-4" points="810.2 724.1 810.2 640.8 960.2 640.8 960.2 724.1 810.2 724.1"/>
      <g class="cls-7">
        <text class="cls-8" transform="translate(870.6 700)"><tspan x="0" y="0">h</tspan></text>
      </g>
      <polygon class="cls-4" points="656 807.5 656 724.1 810.2 724.1 810.2 807.5 656 807.5"/>
      <g class="cls-7">
        <text class="cls-8" transform="translate(718.5 783.3)"><tspan x="0" y="0">4</tspan></text>
      </g>
      <polygon class="cls-4" points="810.2 807.5 810.2 724.1 960.2 724.1 960.2 807.5 810.2 807.5"/>
      <g class="cls-7">
        <text class="cls-8" transform="translate(872.2 783.3)"><tspan x="0" y="0">a</tspan></text>
      </g>
      <polygon class="cls-4" points="656 891.6 656 808.3 810.2 808.3 810.2 891.6 656 891.6"/>
      <g class="cls-7">
        <text class="cls-8" transform="translate(718.5 867.5)"><tspan x="0" y="0">5</tspan></text>
      </g>
      <polygon class="cls-4" points="810.2 891.6 810.2 808.3 960.2 808.3 960.2 891.6 810.2 891.6"/>
      <g class="cls-7">
        <text class="cls-8" transform="translate(870.6 867.5)"><tspan x="0" y="0">b</tspan></text>
      </g>
      <polygon class="cls-4" points="656 975.8 656 892.4 810.2 892.4 810.2 975.8 656 975.8"/>
      <g class="cls-7">
        <text class="cls-8" transform="translate(718.5 951.6)"><tspan x="0" y="0">6</tspan></text>
      </g>
      <polygon class="cls-4" points="810.2 975.8 810.2 892.4 960.2 892.4 960.2 975.8 810.2 975.8"/>
      <g class="cls-7">
        <text class="cls-8" transform="translate(872.2 951.6)"><tspan x="0" y="0">a</tspan></text>
      </g>
    </g>
  </g>
</svg>