<?xml version="1.0" encoding="UTF-8"?>
<svg id="katman_1" data-name="katman 1" xmlns="http://www.w3.org/2000/svg" version="1.1" viewBox="0 0 1000 1550.1">
  <defs>
    <style>
      .cls-1, .cls-2, .cls-3, .cls-4 {
        stroke: #000;
      }

      .cls-1, .cls-2, .cls-4 {
        stroke-miterlimit: 16.7;
        stroke-width: 4.2px;
      }

      .cls-1, .cls-3 {
        fill: none;
      }

      .cls-2 {
        fill: #fff;
        stroke-opacity: 0;
      }

      .cls-3 {
        stroke-miterlimit: 16.7;
        stroke-width: 4.2px;
      }

      .cls-5 {
        font-size: 58.3px;
      }

      .cls-5, .cls-6, .cls-7 {
        isolation: isolate;
      }

      .cls-5, .cls-7 {
        font-family: Times-Roman, Times;
      }

      .cls-5, .cls-7, .cls-4 {
        fill: #000;
      }

      .cls-7 {
        font-size: 58.3px;
      }
    </style>
  </defs>
  <g id="graph0">
    <polygon class="cls-2" points="0 1550.1 0 0 1000 0 1000 1550.1 0 1550.1"/>
    <g id="node1">
      <line class="cls-1" x1="50" y1="849.9" x2="416.7" y2="849.9"/>
      <text class="cls-5" transform="translate(207.4 825.8)"><tspan x="0" y="0">s2</tspan></text>
      <polygon class="cls-1" points="50 933.3 50 849.9 266.7 849.9 266.7 933.3 50 933.3"/>
      <text class="cls-5" transform="translate(108.2 909.1)"><tspan x="0" y="0">isim</tspan></text>
      <polygon class="cls-1" points="266.7 933.3 266.7 849.9 416.7 849.9 416.7 933.3 266.7 933.3"/>
      <text class="cls-5" transform="translate(278.5 909.1)"><tspan x="0" y="0">değer</tspan></text>
      <polygon class="cls-1" points="50 1016.6 50 933.3 266.7 933.3 266.7 1016.6 50 1016.6"/>
      <text class="cls-5" transform="translate(125.9 992.4)"><tspan x="0" y="0">ptr</tspan></text>
      <polygon class="cls-1" points="266.7 1016.6 266.7 933.3 416.7 933.3 416.7 1016.6 266.7 1016.6"/>
      <polygon class="cls-1" points="50 1099.9 50 1016.6 266.7 1016.6 266.7 1099.9 50 1099.9"/>
      <text class="cls-5" transform="translate(64.5 1075.8)"><tspan x="0" y="0">uzunluk</tspan></text>
      <polygon class="cls-1" points="266.7 1099.9 266.7 1016.6 416.7 1016.6 416.7 1099.9 266.7 1099.9"/>
      <text class="cls-5" transform="translate(327.1 1075.8)"><tspan x="0" y="0">7</tspan></text>
      <polygon class="cls-1" points="50 1183.3 50 1099.9 266.7 1099.9 266.7 1183.3 50 1183.3"/>
      <text class="cls-5" transform="translate(62.9 1159.1)"><tspan x="0" y="0">kapasite</tspan></text>
      <polygon class="cls-1" points="266.7 1183.3 266.7 1099.9 416.7 1099.9 416.7 1183.3 266.7 1183.3"/>
      <text class="cls-5" transform="translate(327.1 1159.1)"><tspan x="0" y="0">7</tspan></text>
    </g>
    <g id="edge1">
      <path class="cls-1" d="M341.7,974.9h251.6"/>
      <polygon class="cls-4" points="593.8 960.3 635.4 974.9 593.8 989.5 593.8 960.3"/>
    </g>
    <g id="node3">
      <line class="cls-1" x1="50" y1="93.7" x2="416.7" y2="93.7"/>
      <text class="cls-5" transform="translate(207.4 69.5)"><tspan x="0" y="0">s1</tspan></text>
      <polygon class="cls-1" points="50 177 50 93.7 266.7 93.7 266.7 177 50 177"/>
      <text class="cls-5" transform="translate(108.2 152.8)"><tspan x="0" y="0">isim</tspan></text>
      <polygon class="cls-1" points="266.7 177 266.7 93.7 416.7 93.7 416.7 177 266.7 177"/>
      <text class="cls-5" transform="translate(278.5 152.8)"><tspan x="0" y="0">değer</tspan></text>
      <polygon class="cls-1" points="50 260.3 50 177 266.7 177 266.7 260.3 50 260.3"/>
      <text class="cls-5" transform="translate(125.9 236.2)"><tspan x="0" y="0">ptr</tspan></text>
      <polygon class="cls-1" points="266.7 260.3 266.7 177 416.7 177 416.7 260.3 266.7 260.3"/>
      <polygon class="cls-1" points="50 343.7 50 260.3 266.7 260.3 266.7 343.7 50 343.7"/>
      <text class="cls-5" transform="translate(64.5 319.5)"><tspan x="0" y="0">uzunluk</tspan></text>
      <polygon class="cls-1" points="266.7 343.7 266.7 260.3 416.7 260.3 416.7 343.7 266.7 343.7"/>
      <text class="cls-5" transform="translate(327.1 319.5)"><tspan x="0" y="0">7</tspan></text>
      <polygon class="cls-1" points="50 427 50 343.7 266.7 343.7 266.7 427 50 427"/>
      <text class="cls-5" transform="translate(62.9 402.8)"><tspan x="0" y="0">kapasite</tspan></text>
      <polygon class="cls-1" points="266.7 427 266.7 343.7 416.7 343.7 416.7 427 266.7 427"/>
      <text class="cls-5" transform="translate(327.1 402.8)"><tspan x="0" y="0">7</tspan></text>
    </g>
    <g id="edge2">
      <path class="cls-1" d="M341.7,218.7h251.6"/>
      <polygon class="cls-4" points="593.8 204.1 635.4 218.7 593.8 233.3 593.8 204.1"/>
    </g>
    <g id="node3-2">
      <polygon class="cls-3" points="644.8 177 644.8 93.7 799 93.7 799 177 644.8 177"/>
      <g class="cls-6">
        <text class="cls-7" transform="translate(657.1 152.8)"><tspan x="0" y="0">index</tspan></text>
      </g>
      <polygon class="cls-3" points="799 177 799 93.7 949 93.7 949 177 799 177"/>
      <g class="cls-6">
        <text class="cls-7" transform="translate(810.8 152.8)"><tspan x="0" y="0">değer</tspan></text>
      </g>
      <polygon class="cls-3" points="644.8 260.3 644.8 177 799 177 799 260.3 644.8 260.3"/>
      <g class="cls-6">
        <text class="cls-7" transform="translate(707.3 236.2)"><tspan x="0" y="0">0</tspan></text>
      </g>
      <polygon class="cls-3" points="799 260.3 799 177 949 177 949 260.3 799 260.3"/>
      <g class="cls-6">
        <text class="cls-7" transform="translate(851.3 236.2)"><tspan x="0" y="0">m</tspan></text>
      </g>
      <polygon class="cls-3" points="644.8 343.7 644.8 260.3 799 260.3 799 343.7 644.8 343.7"/>
      <g class="cls-6">
        <text class="cls-7" transform="translate(707.3 319.5)"><tspan x="0" y="0">1</tspan></text>
      </g>
      <polygon class="cls-3" points="799 343.7 799 260.3 949 260.3 949 343.7 799 343.7"/>
      <g class="cls-6">
        <text class="cls-7" transform="translate(861 319.5)"><tspan x="0" y="0">e</tspan></text>
      </g>
      <polygon class="cls-3" points="644.8 427 644.8 343.7 799 343.7 799 427 644.8 427"/>
      <g class="cls-6">
        <text class="cls-7" transform="translate(707.3 402.8)"><tspan x="0" y="0">2</tspan></text>
      </g>
      <polygon class="cls-3" points="799 427 799 343.7 949 343.7 949 427 799 427"/>
      <g class="cls-6">
        <text class="cls-7" transform="translate(864.2 402.8)"><tspan x="0" y="0">r</tspan></text>
      </g>
      <polygon class="cls-3" points="644.8 510.3 644.8 427 799 427 799 510.3 644.8 510.3"/>
      <g class="cls-6">
        <text class="cls-7" transform="translate(707.3 486.2)"><tspan x="0" y="0">3</tspan></text>
      </g>
      <polygon class="cls-3" points="799 510.3 799 427 949 427 949 510.3 799 510.3"/>
      <g class="cls-6">
        <text class="cls-7" transform="translate(859.4 486.2)"><tspan x="0" y="0">h</tspan></text>
      </g>
      <polygon class="cls-3" points="644.8 593.7 644.8 510.3 799 510.3 799 593.7 644.8 593.7"/>
      <g class="cls-6">
        <text class="cls-7" transform="translate(707.3 569.5)"><tspan x="0" y="0">4</tspan></text>
      </g>
      <polygon class="cls-3" points="799 593.7 799 510.3 949 510.3 949 593.7 799 593.7"/>
      <g class="cls-6">
        <text class="cls-7" transform="translate(861 569.5)"><tspan x="0" y="0">a</tspan></text>
      </g>
      <polygon class="cls-3" points="644.8 677.8 644.8 594.5 799 594.5 799 677.8 644.8 677.8"/>
      <g class="cls-6">
        <text class="cls-7" transform="translate(707.3 653.7)"><tspan x="0" y="0">5</tspan></text>
      </g>
      <polygon class="cls-3" points="799 677.8 799 594.5 949 594.5 949 677.8 799 677.8"/>
      <g class="cls-6">
        <text class="cls-7" transform="translate(859.4 653.7)"><tspan x="0" y="0">b</tspan></text>
      </g>
      <polygon class="cls-3" points="644.8 762 644.8 678.6 799 678.6 799 762 644.8 762"/>
      <g class="cls-6">
        <text class="cls-7" transform="translate(707.3 737.8)"><tspan x="0" y="0">6</tspan></text>
      </g>
      <polygon class="cls-3" points="799 762 799 678.6 949 678.6 949 762 799 762"/>
      <g class="cls-6">
        <text class="cls-7" transform="translate(861 737.8)"><tspan x="0" y="0">a</tspan></text>
      </g>
    </g>
    <g id="node3-3">
      <polygon class="cls-3" points="644.8 932.4 644.8 849.1 799 849.1 799 932.4 644.8 932.4"/>
      <g class="cls-6">
        <text class="cls-7" transform="translate(657.1 908.2)"><tspan x="0" y="0">index</tspan></text>
      </g>
      <polygon class="cls-3" points="799 932.4 799 849.1 949 849.1 949 932.4 799 932.4"/>
      <g class="cls-6">
        <text class="cls-7" transform="translate(810.8 908.2)"><tspan x="0" y="0">değer</tspan></text>
      </g>
      <polygon class="cls-3" points="644.8 1015.7 644.8 932.4 799 932.4 799 1015.7 644.8 1015.7"/>
      <g class="cls-6">
        <text class="cls-7" transform="translate(707.3 991.6)"><tspan x="0" y="0">0</tspan></text>
      </g>
      <polygon class="cls-3" points="799 1015.7 799 932.4 949 932.4 949 1015.7 799 1015.7"/>
      <g class="cls-6">
        <text class="cls-7" transform="translate(851.3 991.6)"><tspan x="0" y="0">m</tspan></text>
      </g>
      <polygon class="cls-3" points="644.8 1099.1 644.8 1015.7 799 1015.7 799 1099.1 644.8 1099.1"/>
      <g class="cls-6">
        <text class="cls-7" transform="translate(707.3 1074.9)"><tspan x="0" y="0">1</tspan></text>
      </g>
      <polygon class="cls-3" points="799 1099.1 799 1015.7 949 1015.7 949 1099.1 799 1099.1"/>
      <g class="cls-6">
        <text class="cls-7" transform="translate(861 1074.9)"><tspan x="0" y="0">e</tspan></text>
      </g>
      <polygon class="cls-3" points="644.8 1182.4 644.8 1099.1 799 1099.1 799 1182.4 644.8 1182.4"/>
      <g class="cls-6">
        <text class="cls-7" transform="translate(707.3 1158.2)"><tspan x="0" y="0">2</tspan></text>
      </g>
      <polygon class="cls-3" points="799 1182.4 799 1099.1 949 1099.1 949 1182.4 799 1182.4"/>
      <g class="cls-6">
        <text class="cls-7" transform="translate(864.2 1158.2)"><tspan x="0" y="0">r</tspan></text>
      </g>
      <polygon class="cls-3" points="644.8 1265.7 644.8 1182.4 799 1182.4 799 1265.7 644.8 1265.7"/>
      <g class="cls-6">
        <text class="cls-7" transform="translate(707.3 1241.6)"><tspan x="0" y="0">3</tspan></text>
      </g>
      <polygon class="cls-3" points="799 1265.7 799 1182.4 949 1182.4 949 1265.7 799 1265.7"/>
      <g class="cls-6">
        <text class="cls-7" transform="translate(859.4 1241.6)"><tspan x="0" y="0">h</tspan></text>
      </g>
      <polygon class="cls-3" points="644.8 1349.1 644.8 1265.7 799 1265.7 799 1349.1 644.8 1349.1"/>
      <g class="cls-6">
        <text class="cls-7" transform="translate(707.3 1324.9)"><tspan x="0" y="0">4</tspan></text>
      </g>
      <polygon class="cls-3" points="799 1349.1 799 1265.7 949 1265.7 949 1349.1 799 1349.1"/>
      <g class="cls-6">
        <text class="cls-7" transform="translate(861 1324.9)"><tspan x="0" y="0">a</tspan></text>
      </g>
      <polygon class="cls-3" points="644.8 1433.2 644.8 1349.9 799 1349.9 799 1433.2 644.8 1433.2"/>
      <g class="cls-6">
        <text class="cls-7" transform="translate(707.3 1409.1)"><tspan x="0" y="0">5</tspan></text>
      </g>
      <polygon class="cls-3" points="799 1433.2 799 1349.9 949 1349.9 949 1433.2 799 1433.2"/>
      <g class="cls-6">
        <text class="cls-7" transform="translate(859.4 1409.1)"><tspan x="0" y="0">b</tspan></text>
      </g>
      <polygon class="cls-3" points="644.8 1517.4 644.8 1434 799 1434 799 1517.4 644.8 1517.4"/>
      <g class="cls-6">
        <text class="cls-7" transform="translate(707.3 1493.2)"><tspan x="0" y="0">6</tspan></text>
      </g>
      <polygon class="cls-3" points="799 1517.4 799 1434 949 1434 949 1517.4 799 1517.4"/>
      <g class="cls-6">
        <text class="cls-7" transform="translate(861 1493.2)"><tspan x="0" y="0">a</tspan></text>
      </g>
    </g>
  </g>
</svg>