<?xml version="1.0" encoding="UTF-8"?>
<svg id="katman_1" data-name="katman 1" xmlns="http://www.w3.org/2000/svg" version="1.1" viewBox="0 0 250 342">
  <defs>
    <style>
      .cls-1 {
        fill: none;
      }

      .cls-1, .cls-2 {
        stroke: #000;
        stroke-miterlimit: 11.5;
        stroke-width: 2.9px;
      }

      .cls-2 {
        fill: #fff;
        stroke-opacity: 0;
      }

      .cls-3 {
        fill: #000;
        font-family: Times-Roman, Times;
        font-size: 40.2px;
        isolation: isolate;
      }
    </style>
  </defs>
  <g id="graph0">
    <polygon class="cls-2" points="0 288.5 0 53.2 249.7 53.2 249.7 288.5 0 288.5"/>
    <g id="node1">
      <line class="cls-1" x1="35.9" y1="133.6" x2="216.7" y2="133.6"/>
      <text class="cls-3" transform="translate(85 116.9)"><tspan x="0" y="0">Cons</tspan></text>
      <polygon class="cls-1" points="35.9 265.6 35.9 133.6 101.9 133.6 101.9 265.6 35.9 265.6"/>
      <text class="cls-3" transform="translate(43.2 211.6)"><tspan x="0" y="0">i32</tspan></text>
      <polygon class="cls-1" points="101.9 265.6 101.9 133.6 216.7 133.6 216.7 265.6 101.9 265.6"/>
      <line class="cls-1" x1="110.5" y1="199.6" x2="208" y2="199.6"/>
      <text class="cls-3" transform="translate(119.1 182.9)"><tspan x="0" y="0">Kutu</tspan></text>
      <polygon class="cls-1" points="110.5 257 110.5 199.6 208 199.6 208 257 110.5 257"/>
      <text class="cls-3" transform="translate(118 240.3)"><tspan x="0" y="0">usize</tspan></text>
    </g>
  </g>
</svg>