<?xml version="1.0" encoding="UTF-8"?>
<svg id="katman_1" data-name="katman 1" xmlns="http://www.w3.org/2000/svg" version="1.1" viewBox="0 0 1500 808">
  <defs>
    <style>
      .cls-1 {
        fill: none;
      }

      .cls-1, .cls-2, .cls-3 {
        stroke: #000;
        stroke-miterlimit: 16.7;
        stroke-width: 4.2px;
      }

      .cls-2 {
        fill: #fff;
        stroke-opacity: 0;
      }

      .cls-4 {
        font-family: Times-Roman, Times;
        font-size: 58.3px;
        isolation: isolate;
      }

      .cls-4, .cls-3 {
        fill: #000;
      }
    </style>
  </defs>
  <g id="graph0">
    <polygon class="cls-2" points="0 808 0 0 1500 0 1500 808 0 808"/>
    <g id="node1">
      <line class="cls-1" x1="50" y1="116.7" x2="350" y2="116.7"/>
      <text class="cls-4" transform="translate(188.7 92.5)"><tspan x="0" y="0">s</tspan></text>
      <polygon class="cls-1" points="50 200 50 116.7 200 116.7 200 200 50 200"/>
      <text class="cls-4" transform="translate(74.8 175.8)"><tspan x="0" y="0">isim</tspan></text>
      <polygon class="cls-1" points="200 200 200 116.7 350 116.7 350 200 200 200"/>
      <text class="cls-4" transform="translate(211.8 175.8)"><tspan x="0" y="0">değer</tspan></text>
      <polygon class="cls-1" points="50 283.3 50 200 200 200 200 283.3 50 283.3"/>
      <text class="cls-4" transform="translate(92.6 259.2)"><tspan x="0" y="0">ptr</tspan></text>
      <polygon class="cls-1" points="200 283.3 200 200 350 200 350 283.3 200 283.3"/>
    </g>
    <g id="node2">
      <line class="cls-1" x1="566.7" y1="116.7" x2="933.3" y2="116.7"/>
      <text class="cls-4" transform="translate(724.1 92.5)"><tspan x="0" y="0">s1</tspan></text>
      <polygon class="cls-1" points="566.7 200 566.7 116.7 783.3 116.7 783.3 200 566.7 200"/>
      <text class="cls-4" transform="translate(624.8 175.8)"><tspan x="0" y="0">isim</tspan></text>
      <polygon class="cls-1" points="783.3 200 783.3 116.7 933.3 116.7 933.3 200 783.3 200"/>
      <text class="cls-4" transform="translate(795.2 175.8)"><tspan x="0" y="0">değer</tspan></text>
      <polygon class="cls-1" points="566.7 283.3 566.7 200 783.3 200 783.3 283.3 566.7 283.3"/>
      <text class="cls-4" transform="translate(642.6 259.2)"><tspan x="0" y="0">ptr</tspan></text>
      <polygon class="cls-1" points="783.3 283.3 783.3 200 933.3 200 933.3 283.3 783.3 283.3"/>
      <polygon class="cls-1" points="566.7 366.7 566.7 283.3 783.3 283.3 783.3 366.7 566.7 366.7"/>
      <text class="cls-4" transform="translate(581.1 342.5)"><tspan x="0" y="0">uzunluk</tspan></text>
      <polygon class="cls-1" points="783.3 366.7 783.3 283.3 933.3 283.3 933.3 366.7 783.3 366.7"/>
      <text class="cls-4" transform="translate(843.8 342.5)"><tspan x="0" y="0">7</tspan></text>
      <polygon class="cls-1" points="566.7 450 566.7 366.7 783.3 366.7 783.3 450 566.7 450"/>
      <text class="cls-4" transform="translate(579.5 425.8)"><tspan x="0" y="0">kapasite</tspan></text>
      <polygon class="cls-1" points="783.3 450 783.3 366.7 933.3 366.7 933.3 450 783.3 450"/>
      <text class="cls-4" transform="translate(843.8 425.8)"><tspan x="0" y="0">7</tspan></text>
    </g>
    <g id="edge2">
      <path class="cls-1" d="M275,241.7h249.8"/>
      <polygon class="cls-3" points="525 227.1 566.7 241.7 525 256.3 525 227.1"/>
    </g>
    <g id="node3">
      <polygon class="cls-1" points="1152.1 200 1152.1 116.7 1306.3 116.7 1306.3 200 1152.1 200"/>
      <text class="cls-4" transform="translate(1164.4 175.8)"><tspan x="0" y="0">index</tspan></text>
      <polygon class="cls-1" points="1306.3 200 1306.3 116.7 1456.3 116.7 1456.3 200 1306.3 200"/>
      <text class="cls-4" transform="translate(1318.1 175.8)"><tspan x="0" y="0">değer</tspan></text>
      <polygon class="cls-1" points="1152.1 283.3 1152.1 200 1306.3 200 1306.3 283.3 1152.1 283.3"/>
      <text class="cls-4" transform="translate(1214.6 259.2)"><tspan x="0" y="0">0</tspan></text>
      <polygon class="cls-1" points="1306.3 283.3 1306.3 200 1456.3 200 1456.3 283.3 1306.3 283.3"/>
      <text class="cls-4" transform="translate(1358.6 259.2)"><tspan x="0" y="0">m</tspan></text>
      <polygon class="cls-1" points="1152.1 366.7 1152.1 283.3 1306.3 283.3 1306.3 366.7 1152.1 366.7"/>
      <text class="cls-4" transform="translate(1214.6 342.5)"><tspan x="0" y="0">1</tspan></text>
      <polygon class="cls-1" points="1306.3 366.7 1306.3 283.3 1456.3 283.3 1456.3 366.7 1306.3 366.7"/>
      <text class="cls-4" transform="translate(1368.3 342.5)"><tspan x="0" y="0">e</tspan></text>
      <polygon class="cls-1" points="1152.1 450 1152.1 366.7 1306.3 366.7 1306.3 450 1152.1 450"/>
      <text class="cls-4" transform="translate(1214.6 425.8)"><tspan x="0" y="0">2</tspan></text>
      <polygon class="cls-1" points="1306.3 450 1306.3 366.7 1456.3 366.7 1456.3 450 1306.3 450"/>
      <text class="cls-4" transform="translate(1371.5 425.8)"><tspan x="0" y="0">r</tspan></text>
      <polygon class="cls-1" points="1152.1 533.3 1152.1 450 1306.3 450 1306.3 533.3 1152.1 533.3"/>
      <text class="cls-4" transform="translate(1214.6 509.2)"><tspan x="0" y="0">3</tspan></text>
      <polygon class="cls-1" points="1306.3 533.3 1306.3 450 1456.3 450 1456.3 533.3 1306.3 533.3"/>
      <text class="cls-4" transform="translate(1366.7 509.2)"><tspan x="0" y="0">h</tspan></text>
      <polygon class="cls-1" points="1152.1 616.7 1152.1 533.3 1306.3 533.3 1306.3 616.7 1152.1 616.7"/>
      <text class="cls-4" transform="translate(1214.6 592.5)"><tspan x="0" y="0">4</tspan></text>
      <polygon class="cls-1" points="1306.3 616.7 1306.3 533.3 1456.3 533.3 1456.3 616.7 1306.3 616.7"/>
      <text class="cls-4" transform="translate(1368.3 592.5)"><tspan x="0" y="0">a</tspan></text>
      <polygon class="cls-1" points="1152.1 700.8 1152.1 617.5 1306.3 617.5 1306.3 700.8 1152.1 700.8"/>
      <text class="cls-4" transform="translate(1214.6 676.7)"><tspan x="0" y="0">5</tspan></text>
      <polygon class="cls-1" points="1306.3 700.8 1306.3 617.5 1456.3 617.5 1456.3 700.8 1306.3 700.8"/>
      <text class="cls-4" transform="translate(1366.7 676.7)"><tspan x="0" y="0">b</tspan></text>
      <polygon class="cls-1" points="1152.1 785 1152.1 701.6 1306.3 701.6 1306.3 785 1152.1 785"/>
      <text class="cls-4" transform="translate(1214.6 760.8)"><tspan x="0" y="0">6</tspan></text>
      <polygon class="cls-1" points="1306.3 785 1306.3 701.6 1456.3 701.6 1456.3 785 1306.3 785"/>
      <text class="cls-4" transform="translate(1368.3 760.8)"><tspan x="0" y="0">a</tspan></text>
    </g>
    <g id="edge1">
      <path class="cls-1" d="M858.3,241.7h251.6"/>
      <polygon class="cls-3" points="1110.4 227.1 1152.1 241.7 1110.4 256.3 1110.4 227.1"/>
    </g>
  </g>
</svg>