<?xml version="1.0" encoding="UTF-8"?>
<svg id="katman_1" data-name="katman 1" xmlns="http://www.w3.org/2000/svg" version="1.1" viewBox="0 0 987.5 645.9">
  <defs>
    <style>
      .cls-1, .cls-2, .cls-3 {
        stroke: #000;
        stroke-miterlimit: 16.7;
        stroke-width: 4.2px;
      }

      .cls-1, .cls-4 {
        fill: #000;
      }

      .cls-2 {
        fill: #fff;
        stroke-opacity: 0;
      }

      .cls-3 {
        fill: none;
      }

      .cls-5, .cls-4 {
        isolation: isolate;
      }

      .cls-4 {
        font-family: Times-Roman, Times;
        font-size: 58.3px;
      }
    </style>
  </defs>
  <g class="cls-5">
    <text class="cls-4" transform="translate(327.1 342.5)"><tspan x="0" y="0">5</tspan></text>
  </g>
  <g class="cls-5">
    <text class="cls-4" transform="translate(327.1 425.8)"><tspan x="0" y="0">5</tspan></text>
  </g>
  <g>
    <polygon class="cls-2" points="0 645.9 0 0 987.5 0 987.5 645.9 0 645.9"/>
    <g>
      <g>
        <line class="cls-3" x1="50" y1="116.7" x2="416.7" y2="116.7"/>
        <g class="cls-5">
          <text class="cls-4" transform="translate(207.4 92.5)"><tspan x="0" y="0">s1</tspan></text>
        </g>
        <polygon class="cls-3" points="50 200 50 116.7 266.7 116.7 266.7 200 50 200"/>
        <g class="cls-5">
          <text class="cls-4" transform="translate(108.2 175.8)"><tspan x="0" y="0">isim</tspan></text>
        </g>
        <polygon class="cls-3" points="266.7 200 266.7 116.7 416.7 116.7 416.7 200 266.7 200"/>
        <g class="cls-5">
          <text class="cls-4" transform="translate(278.5 175.8)"><tspan x="0" y="0">değer</tspan></text>
        </g>
        <polygon class="cls-3" points="50 283.3 50 200 266.7 200 266.7 283.3 50 283.3"/>
        <g class="cls-5">
          <text class="cls-4" transform="translate(125.9 259.2)"><tspan x="0" y="0">ptr</tspan></text>
        </g>
        <polygon class="cls-3" points="266.7 283.3 266.7 200 416.7 200 416.7 283.3 266.7 283.3"/>
        <polygon class="cls-3" points="50 366.7 50 283.3 266.7 283.3 266.7 366.7 50 366.7"/>
        <g class="cls-5">
          <text class="cls-4" transform="translate(64.5 342.5)"><tspan x="0" y="0">uzunluk</tspan></text>
        </g>
        <polygon class="cls-3" points="266.7 366.7 266.7 283.3 416.7 283.3 416.7 366.7 266.7 366.7"/>
        <polygon class="cls-3" points="50 450 50 366.7 266.7 366.7 266.7 450 50 450"/>
        <g class="cls-5">
          <text class="cls-4" transform="translate(62.9 425.8)"><tspan x="0" y="0">kapasite</tspan></text>
        </g>
        <polygon class="cls-3" points="266.7 450 266.7 366.7 416.7 366.7 416.7 450 266.7 450"/>
      </g>
      <g id="node2">
        <polygon class="cls-3" points="635.4 200 635.4 116.7 789.6 116.7 789.6 200 635.4 200"/>
        <g class="cls-5">
          <text class="cls-4" transform="translate(647.7 175.8)"><tspan x="0" y="0">index</tspan></text>
        </g>
        <polygon class="cls-3" points="789.6 200 789.6 116.7 939.6 116.7 939.6 200 789.6 200"/>
        <g class="cls-5">
          <text class="cls-4" transform="translate(801.4 175.8)"><tspan x="0" y="0">değer</tspan></text>
        </g>
        <polygon class="cls-3" points="635.4 283.3 635.4 200 789.6 200 789.6 283.3 635.4 283.3"/>
        <g class="cls-5">
          <text class="cls-4" transform="translate(697.9 259.2)"><tspan x="0" y="0">0</tspan></text>
        </g>
        <polygon class="cls-3" points="789.6 283.3 789.6 200 939.6 200 939.6 283.3 789.6 283.3"/>
        <g class="cls-5">
          <text class="cls-4" transform="translate(850 259.2)"><tspan x="0" y="0">h</tspan></text>
        </g>
        <polygon class="cls-3" points="635.4 366.7 635.4 283.3 789.6 283.3 789.6 366.7 635.4 366.7"/>
        <g class="cls-5">
          <text class="cls-4" transform="translate(697.9 342.5)"><tspan x="0" y="0">1</tspan></text>
        </g>
        <polygon class="cls-3" points="789.6 366.7 789.6 283.3 939.6 283.3 939.6 366.7 789.6 366.7"/>
        <g class="cls-5">
          <text class="cls-4" transform="translate(851.6 342.5)"><tspan x="0" y="0">e</tspan></text>
        </g>
        <polygon class="cls-3" points="635.4 450 635.4 366.7 789.6 366.7 789.6 450 635.4 450"/>
        <g class="cls-5">
          <text class="cls-4" transform="translate(697.9 425.8)"><tspan x="0" y="0">2</tspan></text>
        </g>
        <polygon class="cls-3" points="789.6 450 789.6 366.7 939.6 366.7 939.6 450 789.6 450"/>
        <g class="cls-5">
          <text class="cls-4" transform="translate(856.5 425.8)"><tspan x="0" y="0">l</tspan></text>
        </g>
        <polygon class="cls-3" points="635.4 533.3 635.4 450 789.6 450 789.6 533.3 635.4 533.3"/>
        <g class="cls-5">
          <text class="cls-4" transform="translate(697.9 509.2)"><tspan x="0" y="0">3</tspan></text>
        </g>
        <polygon class="cls-3" points="789.6 533.3 789.6 450 939.6 450 939.6 533.3 789.6 533.3"/>
        <g class="cls-5">
          <text class="cls-4" transform="translate(856.5 509.2)"><tspan x="0" y="0">l</tspan></text>
        </g>
        <polygon class="cls-3" points="635.4 616.7 635.4 533.3 789.6 533.3 789.6 616.7 635.4 616.7"/>
        <g class="cls-5">
          <text class="cls-4" transform="translate(697.9 592.5)"><tspan x="0" y="0">4</tspan></text>
        </g>
        <polygon class="cls-3" points="789.6 616.7 789.6 533.3 939.6 533.3 939.6 616.7 789.6 616.7"/>
        <g class="cls-5">
          <text class="cls-4" transform="translate(850 592.5)"><tspan x="0" y="0">o</tspan></text>
        </g>
      </g>
      <g id="edge1">
        <path class="cls-3" d="M341.7,241.7h251.6"/>
        <polygon class="cls-1" points="593.8 227.1 635.4 241.7 593.8 256.3 593.8 227.1"/>
      </g>
    </g>
  </g>
</svg>